<svg xmlns="http://www.w3.org/2000/svg" viewBox="0 0 176 48"><defs><style>.cls-1{fill:#f0f3ff;}.cls-2{fill:#b4c0ff;}</style></defs><g id="Слой_2" data-name="Слой 2"><g id="Layer_1" data-name="Layer 1"><path class="cls-1" d="M24.15.56a4.39,4.39,0,0,0-4.3,0L19,1,2.15,10.47A4.15,4.15,0,0,0,0,14.08V33.92a4.15,4.15,0,0,0,2.15,3.61l.79.44,16.91,9.47a4.39,4.39,0,0,0,4.3,0L41.09,38h0l.75-.42A4.15,4.15,0,0,0,44,33.92V14.08a4.15,4.15,0,0,0-2.15-3.61L25,1Zm14,34L23.33,42.88a2.76,2.76,0,0,1-2.67,0L5.82,34.56a2.57,2.57,0,0,1-1.34-2.24V15.68a2.57,2.57,0,0,1,1.34-2.24L20.66,5.12a2.76,2.76,0,0,1,2.67,0l14.85,8.32a2.57,2.57,0,0,1,1.34,2.24V32.32A2.56,2.56,0,0,1,38.18,34.56Z"/><path class="cls-1" d="M7.22,18.13V29.87a4.14,4.14,0,0,0,2.15,3.61l2.33,1.31V29.73A2.51,2.51,0,0,1,13,27.53l7.66-4.3A2.53,2.53,0,0,0,22,21V17.47L11.7,23.24V19.73A2.56,2.56,0,0,1,13,17.49l7.63-4.28a2.74,2.74,0,0,1,2.66,0l9,5V14.69A2.52,2.52,0,0,0,31,12.48L24.15,8.65a4.39,4.39,0,0,0-4.3,0L9.37,14.52A4.14,4.14,0,0,0,7.22,18.13Z"/><path class="cls-1" d="M22,37v1.58a1.17,1.17,0,0,0,1.75,1L35,33.24a1.11,1.11,0,0,0,0-2l-1.42-.79a2.66,2.66,0,0,0-2.62,0l-7.68,4.3A2.52,2.52,0,0,0,22,37Z"/><path class="cls-1" d="M33.6,28l1.42.79a1.17,1.17,0,0,0,1.75-1v-2a2.55,2.55,0,0,0-1.31-2.21L34,22.75a1.17,1.17,0,0,0-1.75,1v2A2.55,2.55,0,0,0,33.6,28Z"/><path class="cls-2" d="M56,4.37H68.33V6.83H59v7.56h8.66v2.42H59V27.1H56Z"/><path class="cls-2" d="M72.54,4.37h3V24.63h9.78V27.1H72.54Z"/><path class="cls-2" d="M100.44,16.44h-8.9v8.19h9.92V27.1H88.58V4.37H101V6.83H91.54V14h8.9Z"/><path class="cls-2" d="M117.83,27.1l-2.92-5c-1.19-1.92-1.94-3.17-2.65-4.48h-.07c-.64,1.31-1.29,2.53-2.48,4.51l-2.75,5h-3.39l7-11.5L103.84,4.37h3.43l3,5.33c.85,1.48,1.5,2.63,2.11,3.84h.1c.65-1.35,1.22-2.39,2.07-3.84l3.13-5.33h3.4l-7,11.06,7.13,11.67Z"/><path class="cls-2" d="M136.55,16.44h-8.9v8.19h9.93V27.1H124.7V4.37h12.37V6.83h-9.42V14h8.9Z"/><path class="cls-2" d="M140.46,25.34a2,2,0,0,1,2-2.12,2,2,0,0,1,2,2.12,2,2,0,1,1-4,0Z"/><path class="cls-2" d="M151.26,4.37V27.1h-2.95V4.37Z"/><path class="cls-2" d="M176,15.5c0,7.82-4.79,12-10.63,12-6.05,0-10.3-4.66-10.3-11.53C155.07,8.72,159.59,4,165.7,4,172,4,176,8.75,176,15.5Zm-17.77.37c0,4.85,2.65,9.2,7.31,9.2s7.33-4.28,7.33-9.44c0-4.51-2.38-9.24-7.3-9.24S158.23,10.88,158.23,15.87Z"/><path class="cls-2" d="M62.16,41.09a5.21,5.21,0,0,1-2.14.38,3.78,3.78,0,0,1-4-4.08,4,4,0,0,1,4.25-4.24,4.46,4.46,0,0,1,1.93.36l-.26.85A3.83,3.83,0,0,0,60.28,34a3,3,0,0,0-3.17,3.33,2.94,2.94,0,0,0,3.12,3.24A4.14,4.14,0,0,0,62,40.26Z"/><path class="cls-2" d="M63.41,37.37c0-.68,0-1.27,0-1.81h.93l0,1.14h.05A1.76,1.76,0,0,1,66,35.43a1,1,0,0,1,.3,0v1a1.32,1.32,0,0,0-.36,0,1.49,1.49,0,0,0-1.43,1.35,3.6,3.6,0,0,0,0,.49v3.09h-1Z"/><path class="cls-2" d="M68,35.56,69.32,39c.13.38.27.84.37,1.19h0c.11-.35.22-.79.37-1.21l1.16-3.4h1.12l-1.59,4.13c-.76,2-1.28,3-2,3.63a3,3,0,0,1-1.31.68l-.26-.88A3.11,3.11,0,0,0,69,41.43a.76.76,0,0,0,.08-.25A.85.85,0,0,0,69,40.9l-2.16-5.34Z"/><path class="cls-2" d="M73.33,37.45c0-.74,0-1.34,0-1.89h1l.05,1h0a2.31,2.31,0,0,1,2.07-1.12c1.41,0,2.48,1.18,2.48,2.94,0,2.09-1.28,3.12-2.66,3.12a2.07,2.07,0,0,1-1.8-.91h0v3.14h-1V37.45Zm1,1.54a2,2,0,0,0,.05.44A1.63,1.63,0,0,0,76,40.66c1.12,0,1.77-.91,1.77-2.24,0-1.16-.61-2.15-1.73-2.15a1.69,1.69,0,0,0-1.61,1.3,1.55,1.55,0,0,0-.07.43Z"/><path class="cls-2" d="M81.47,33.9v1.66H83v.8H81.47v3.12c0,.72.21,1.13.8,1.13a2.6,2.6,0,0,0,.61-.07l.05.79a2.69,2.69,0,0,1-.94.14A1.49,1.49,0,0,1,80.84,41a2.15,2.15,0,0,1-.41-1.51V36.36h-.9v-.8h.9V34.17Z"/><path class="cls-2" d="M89.39,38.41a2.83,2.83,0,0,1-2.9,3.07,2.76,2.76,0,0,1-2.8-3,2.83,2.83,0,0,1,2.89-3.07A2.75,2.75,0,0,1,89.39,38.41Zm-4.63.06c0,1.27.74,2.22,1.78,2.22s1.77-.94,1.77-2.25c0-1-.49-2.22-1.75-2.22S84.76,37.37,84.76,38.47Z"/><path class="cls-2" d="M100.18,37.81c-.06-1.13-.13-2.48-.12-3.48h0c-.28.94-.61,2-1,3.06L97.56,41.3h-.8l-1.31-3.84c-.39-1.13-.71-2.18-.94-3.13h0c0,1-.08,2.36-.15,3.56l-.22,3.46h-1l.56-8.07H95l1.39,3.91c.34,1,.62,1.88.82,2.71h0c.21-.81.5-1.7.86-2.71l1.45-3.91h1.34l.5,8.07h-1Z"/><path class="cls-2" d="M106.29,41.35l-.08-.73h0a2.16,2.16,0,0,1-1.78.87,1.67,1.67,0,0,1-1.79-1.67c0-1.4,1.26-2.16,3.51-2.15v-.12a1.19,1.19,0,0,0-1.32-1.34,2.91,2.91,0,0,0-1.53.43l-.24-.7a3.7,3.7,0,0,1,1.92-.51c1.79,0,2.22,1.21,2.22,2.37V40a8.19,8.19,0,0,0,.1,1.38Zm-.15-3c-1.16,0-2.48.18-2.48,1.3a.93.93,0,0,0,1,1,1.44,1.44,0,0,0,1.41-1,1,1,0,0,0,.06-.34v-1Z"/><path class="cls-2" d="M108.87,37.37c0-.68,0-1.27-.05-1.81h.93l0,1.14h0a1.74,1.74,0,0,1,1.61-1.27.91.91,0,0,1,.3,0v1a1.28,1.28,0,0,0-.36,0A1.47,1.47,0,0,0,110,37.77a2.46,2.46,0,0,0,0,.49v3.09h-1Z"/><path class="cls-2" d="M113.91,38.22h0a7.91,7.91,0,0,1,.52-.66l1.71-2h1.28l-2.26,2.38,2.58,3.41h-1.3l-2-2.77-.54.59v2.18h-1V32.86h1v5.36Z"/><path class="cls-2" d="M119.11,38.65a1.87,1.87,0,0,0,2,2,3.85,3.85,0,0,0,1.62-.3l.18.75a4.69,4.69,0,0,1-1.94.36,2.7,2.7,0,0,1-2.87-2.92,2.82,2.82,0,0,1,2.74-3.12,2.46,2.46,0,0,1,2.41,2.73,4.35,4.35,0,0,1,0,.49Zm3.11-.76a1.5,1.5,0,0,0-1.47-1.71,1.76,1.76,0,0,0-1.63,1.71Z"/><path class="cls-2" d="M125.84,33.9v1.66h1.52v.8h-1.52v3.12c0,.72.21,1.13.8,1.13a2.6,2.6,0,0,0,.61-.07l0,.79a2.69,2.69,0,0,1-.94.14,1.49,1.49,0,0,1-1.15-.44,2.15,2.15,0,0,1-.41-1.51V36.36h-.9v-.8h.9V34.17Z"/><path class="cls-2" d="M129.74,33.93a.66.66,0,0,1-1.32,0,.65.65,0,0,1,.67-.66A.63.63,0,0,1,129.74,33.93Zm-1.19,7.42V35.56h1.06v5.79Z"/><path class="cls-2" d="M131.38,37.13c0-.6,0-1.09,0-1.57h.94l.06,1h0a2.16,2.16,0,0,1,1.93-1.09c.81,0,2.06.48,2.06,2.47v3.46h-1.06V38c0-.94-.35-1.71-1.35-1.71a1.5,1.5,0,0,0-1.42,1.07,1.45,1.45,0,0,0-.07.49v3.49h-1.06Z"/><path class="cls-2" d="M143.1,35.56c0,.42,0,.88,0,1.59v3.37a3.34,3.34,0,0,1-.83,2.64,3.11,3.11,0,0,1-2.13.69,3.79,3.79,0,0,1-1.94-.47l.27-.8a3.39,3.39,0,0,0,1.71.45c1.09,0,1.88-.56,1.88-2v-.65h0a2.09,2.09,0,0,1-1.86,1,2.59,2.59,0,0,1-2.48-2.82,2.79,2.79,0,0,1,2.63-3.08,1.94,1.94,0,0,1,1.82,1h0l0-.88ZM142,37.85a1.44,1.44,0,0,0-.06-.48,1.53,1.53,0,0,0-1.48-1.12c-1,0-1.74.85-1.74,2.19,0,1.14.58,2.09,1.73,2.09a1.55,1.55,0,0,0,1.47-1.08,1.82,1.82,0,0,0,.09-.56v-1Z"/><path class="cls-2" d="M152.49,41.35l-.76-.79a3.32,3.32,0,0,1-2.37.92,2.29,2.29,0,0,1-2.5-2.26,2.66,2.66,0,0,1,1.59-2.36v0a2.79,2.79,0,0,1-.67-1.69,2,2,0,0,1,2.06-2,1.69,1.69,0,0,1,1.8,1.71c0,.85-.5,1.52-1.79,2.16v0c.69.8,1.46,1.68,2,2.25a5.83,5.83,0,0,0,.78-2.35h1a6.18,6.18,0,0,1-1.17,3l1.34,1.42ZM151.21,40c-.48-.53-1.38-1.51-2.29-2.54a2,2,0,0,0-1,1.64,1.6,1.6,0,0,0,1.67,1.62A2.28,2.28,0,0,0,151.21,40ZM148.74,35a2.25,2.25,0,0,0,.62,1.45c.82-.46,1.35-.89,1.35-1.58a1,1,0,0,0-.94-1A1.05,1.05,0,0,0,148.74,35Z"/><path class="cls-2" d="M157.26,33.38a12.52,12.52,0,0,1,2-.16,3.3,3.3,0,0,1,2.28.68,2.12,2.12,0,0,1,.71,1.68,2.38,2.38,0,0,1-.62,1.73,3.42,3.42,0,0,1-2.49.88,3.61,3.61,0,0,1-.84-.07v3.23h-1.05v-8Zm1.05,3.89a3.52,3.52,0,0,0,.87.09c1.26,0,2-.62,2-1.73s-.76-1.58-1.92-1.58a4.21,4.21,0,0,0-1,.09v3.13Z"/><path class="cls-2" d="M163.68,33.39a10.77,10.77,0,0,1,2-.17,3.37,3.37,0,0,1,2.35.66,2,2,0,0,1,.64,1.54,2.11,2.11,0,0,1-1.53,2v0a2,2,0,0,1,1.19,1.63,13.26,13.26,0,0,0,.63,2.22h-1.09a11.07,11.07,0,0,1-.54-1.93c-.24-1.12-.68-1.53-1.63-1.57h-1v3.5h-1Zm1,3.68h1.07c1.13,0,1.84-.61,1.84-1.54s-.76-1.49-1.87-1.5a4.34,4.34,0,0,0-1,.09v3Z"/></g></g></svg>