<svg width="511" height="513" viewBox="0 0 511 513" fill="none" xmlns="http://www.w3.org/2000/svg">
<rect x="151" y="154" width="208" height="205" fill="white"/>
<path d="M435.379 75.0195C411.753 51.2453 383.659 32.3779 352.713 19.503C321.767 6.62815 288.581 0 255.064 0C221.547 0 188.36 6.62815 157.415 19.503C126.469 32.3779 98.3747 51.2453 74.7487 75.0195C-24.9113 175.02 -24.9212 336.94 74.7487 437.02C98.3747 460.794 126.469 479.661 157.415 492.536C188.36 505.411 221.547 512.039 255.064 512.039C288.581 512.039 321.767 505.411 352.713 492.536C383.659 479.661 411.753 460.794 435.379 437.02C534.999 337.02 535.049 175.08 435.379 75.0195ZM331.749 272.61L235.999 347.36C222.399 357.98 202.199 348.36 202.199 330.77V181.27C202.199 163.81 222.259 153.95 235.999 164.68L331.749 239.42C334.268 241.39 336.305 243.909 337.707 246.784C339.108 249.659 339.836 252.816 339.836 256.015C339.836 259.213 339.108 262.37 337.707 265.245C336.305 268.12 334.268 270.639 331.749 272.61V272.61Z" fill="url(#paint0_linear)"/>
<defs>
<linearGradient id="paint0_linear" x1="389.299" y1="36.6495" x2="126.509" y2="466.09" gradientUnits="userSpaceOnUse">
<stop stop-color="#5D87FB"/>
<stop offset="0.713542" stop-color="#5D86FB"/>
<stop offset="1" stop-color="#5D86FB"/>
</linearGradient>
</defs>
</svg>
